<mxfile host="drawio-plugin" modified="2023-06-20T08:39:45.938Z" agent="5.0 (Windows NT 6.2; Win64; x64) AppleWebKit/537.36 (KHTML, like Gecko) Chrome/104.0.5112.102 Safari/537.36" etag="pXuo9xpYOpjYJ0cmDyGd" version="20.5.3" type="embed"><diagram name="Page-1" id="3H1zWXq2zTnFVmHmEkWN"><mxGraphModel dx="3545" dy="1191" grid="1" gridSize="10" guides="1" tooltips="1" connect="1" arrows="1" fold="1" page="1" pageScale="1" pageWidth="827" pageHeight="1169" math="0" shadow="0"><root><mxCell id="0"/><mxCell id="1" parent="0"/><mxCell id="0dbk8oD-BahbHtxNB52f-200" value="" style="rounded=0;whiteSpace=wrap;html=1;fillColor=#76608a;fontColor=#ffffff;strokeColor=#432D57;" parent="1" vertex="1"><mxGeometry x="-680" y="20" width="470" height="620" as="geometry"/></mxCell><mxCell id="0dbk8oD-BahbHtxNB52f-199" value="" style="rounded=0;whiteSpace=wrap;html=1;fillColor=#647687;strokeColor=#314354;fontColor=#ffffff;" parent="1" vertex="1"><mxGeometry x="-1540" y="30" width="640" height="550" as="geometry"/></mxCell><mxCell id="0dbk8oD-BahbHtxNB52f-198" value="" style="rounded=0;whiteSpace=wrap;html=1;fillColor=#6d8764;fontColor=#ffffff;strokeColor=#3A5431;" parent="1" vertex="1"><mxGeometry x="-1530" y="600" width="770" height="290" as="geometry"/></mxCell><mxCell id="0dbk8oD-BahbHtxNB52f-197" value="" style="rounded=0;whiteSpace=wrap;html=1;fillColor=#fa6800;fontColor=#000000;strokeColor=#C73500;glass=0;" parent="1" vertex="1"><mxGeometry x="-1490" y="900" width="890" height="250" as="geometry"/></mxCell><mxCell id="0dbk8oD-BahbHtxNB52f-1" value="beu2bw.clienti" style="shape=table;startSize=30;container=1;collapsible=1;childLayout=tableLayout;fixedRows=1;rowLines=0;fontStyle=1;align=center;resizeLast=1;" parent="1" vertex="1"><mxGeometry x="-1500" y="50" width="320" height="510" as="geometry"/></mxCell><mxCell id="0dbk8oD-BahbHtxNB52f-2" value="" style="shape=tableRow;horizontal=0;startSize=0;swimlaneHead=0;swimlaneBody=0;fillColor=none;collapsible=0;dropTarget=0;points=[[0,0.5],[1,0.5]];portConstraint=eastwest;strokeColor=inherit;top=0;left=0;right=0;bottom=0;" parent="0dbk8oD-BahbHtxNB52f-1" vertex="1"><mxGeometry y="30" width="320" height="30" as="geometry"/></mxCell><mxCell id="0dbk8oD-BahbHtxNB52f-3" value="PK" style="shape=partialRectangle;overflow=hidden;connectable=0;fillColor=none;strokeColor=inherit;top=0;left=0;bottom=0;right=0;" parent="0dbk8oD-BahbHtxNB52f-2" vertex="1"><mxGeometry width="30" height="30" as="geometry"><mxRectangle width="30" height="30" as="alternateBounds"/></mxGeometry></mxCell><mxCell id="0dbk8oD-BahbHtxNB52f-4" value="id UUID NOT NULL" style="shape=partialRectangle;overflow=hidden;connectable=0;fillColor=none;align=left;strokeColor=inherit;top=0;left=0;bottom=0;right=0;spacingLeft=6;" parent="0dbk8oD-BahbHtxNB52f-2" vertex="1"><mxGeometry x="30" width="290" height="30" as="geometry"><mxRectangle width="290" height="30" as="alternateBounds"/></mxGeometry></mxCell><mxCell id="0dbk8oD-BahbHtxNB52f-5" value="" style="shape=tableRow;horizontal=0;startSize=0;swimlaneHead=0;swimlaneBody=0;fillColor=none;collapsible=0;dropTarget=0;points=[[0,0.5],[1,0.5]];portConstraint=eastwest;strokeColor=inherit;top=0;left=0;right=0;bottom=0;" parent="0dbk8oD-BahbHtxNB52f-1" vertex="1"><mxGeometry y="60" width="320" height="30" as="geometry"/></mxCell><mxCell id="0dbk8oD-BahbHtxNB52f-6" value="" style="shape=partialRectangle;overflow=hidden;connectable=0;fillColor=none;strokeColor=inherit;top=0;left=0;bottom=0;right=0;" parent="0dbk8oD-BahbHtxNB52f-5" vertex="1"><mxGeometry width="30" height="30" as="geometry"><mxRectangle width="30" height="30" as="alternateBounds"/></mxGeometry></mxCell><mxCell id="0dbk8oD-BahbHtxNB52f-7" value="cognome_contatto character varying(255)" style="shape=partialRectangle;overflow=hidden;connectable=0;fillColor=none;align=left;strokeColor=inherit;top=0;left=0;bottom=0;right=0;spacingLeft=6;" parent="0dbk8oD-BahbHtxNB52f-5" vertex="1"><mxGeometry x="30" width="290" height="30" as="geometry"><mxRectangle width="290" height="30" as="alternateBounds"/></mxGeometry></mxCell><mxCell id="0dbk8oD-BahbHtxNB52f-8" value="" style="shape=tableRow;horizontal=0;startSize=0;swimlaneHead=0;swimlaneBody=0;fillColor=none;collapsible=0;dropTarget=0;points=[[0,0.5],[1,0.5]];portConstraint=eastwest;strokeColor=inherit;top=0;left=0;right=0;bottom=0;" parent="0dbk8oD-BahbHtxNB52f-1" vertex="1"><mxGeometry y="90" width="320" height="30" as="geometry"/></mxCell><mxCell id="0dbk8oD-BahbHtxNB52f-9" value="" style="shape=partialRectangle;overflow=hidden;connectable=0;fillColor=none;strokeColor=inherit;top=0;left=0;bottom=0;right=0;" parent="0dbk8oD-BahbHtxNB52f-8" vertex="1"><mxGeometry width="30" height="30" as="geometry"><mxRectangle width="30" height="30" as="alternateBounds"/></mxGeometry></mxCell><mxCell id="0dbk8oD-BahbHtxNB52f-10" value="data_inserimento timestamp without time zone" style="shape=partialRectangle;overflow=hidden;connectable=0;fillColor=none;align=left;strokeColor=inherit;top=0;left=0;bottom=0;right=0;spacingLeft=6;" parent="0dbk8oD-BahbHtxNB52f-8" vertex="1"><mxGeometry x="30" width="290" height="30" as="geometry"><mxRectangle width="290" height="30" as="alternateBounds"/></mxGeometry></mxCell><mxCell id="0dbk8oD-BahbHtxNB52f-11" value="" style="shape=tableRow;horizontal=0;startSize=0;swimlaneHead=0;swimlaneBody=0;fillColor=none;collapsible=0;dropTarget=0;points=[[0,0.5],[1,0.5]];portConstraint=eastwest;strokeColor=inherit;top=0;left=0;right=0;bottom=0;" parent="0dbk8oD-BahbHtxNB52f-1" vertex="1"><mxGeometry y="120" width="320" height="30" as="geometry"/></mxCell><mxCell id="0dbk8oD-BahbHtxNB52f-12" value="" style="shape=partialRectangle;overflow=hidden;connectable=0;fillColor=none;strokeColor=inherit;top=0;left=0;bottom=0;right=0;" parent="0dbk8oD-BahbHtxNB52f-11" vertex="1"><mxGeometry width="30" height="30" as="geometry"><mxRectangle width="30" height="30" as="alternateBounds"/></mxGeometry></mxCell><mxCell id="0dbk8oD-BahbHtxNB52f-13" value="data_ultimo_contatto timestamp without time zone" style="shape=partialRectangle;overflow=hidden;connectable=0;fillColor=none;align=left;strokeColor=inherit;top=0;left=0;bottom=0;right=0;spacingLeft=6;" parent="0dbk8oD-BahbHtxNB52f-11" vertex="1"><mxGeometry x="30" width="290" height="30" as="geometry"><mxRectangle width="290" height="30" as="alternateBounds"/></mxGeometry></mxCell><mxCell id="0dbk8oD-BahbHtxNB52f-14" value="" style="shape=tableRow;horizontal=0;startSize=0;swimlaneHead=0;swimlaneBody=0;fillColor=none;collapsible=0;dropTarget=0;points=[[0,0.5],[1,0.5]];portConstraint=eastwest;strokeColor=inherit;top=0;left=0;right=0;bottom=0;" parent="0dbk8oD-BahbHtxNB52f-1" vertex="1"><mxGeometry y="150" width="320" height="30" as="geometry"/></mxCell><mxCell id="0dbk8oD-BahbHtxNB52f-15" value="" style="shape=partialRectangle;overflow=hidden;connectable=0;fillColor=none;strokeColor=inherit;top=0;left=0;bottom=0;right=0;" parent="0dbk8oD-BahbHtxNB52f-14" vertex="1"><mxGeometry width="30" height="30" as="geometry"><mxRectangle width="30" height="30" as="alternateBounds"/></mxGeometry></mxCell><mxCell id="0dbk8oD-BahbHtxNB52f-16" value="email character varying(255)" style="shape=partialRectangle;overflow=hidden;connectable=0;fillColor=none;align=left;strokeColor=inherit;top=0;left=0;bottom=0;right=0;spacingLeft=6;" parent="0dbk8oD-BahbHtxNB52f-14" vertex="1"><mxGeometry x="30" width="290" height="30" as="geometry"><mxRectangle width="290" height="30" as="alternateBounds"/></mxGeometry></mxCell><mxCell id="0dbk8oD-BahbHtxNB52f-17" value="" style="shape=tableRow;horizontal=0;startSize=0;swimlaneHead=0;swimlaneBody=0;fillColor=none;collapsible=0;dropTarget=0;points=[[0,0.5],[1,0.5]];portConstraint=eastwest;strokeColor=inherit;top=0;left=0;right=0;bottom=0;" parent="0dbk8oD-BahbHtxNB52f-1" vertex="1"><mxGeometry y="180" width="320" height="30" as="geometry"/></mxCell><mxCell id="0dbk8oD-BahbHtxNB52f-18" value="" style="shape=partialRectangle;overflow=hidden;connectable=0;fillColor=none;strokeColor=inherit;top=0;left=0;bottom=0;right=0;" parent="0dbk8oD-BahbHtxNB52f-17" vertex="1"><mxGeometry width="30" height="30" as="geometry"><mxRectangle width="30" height="30" as="alternateBounds"/></mxGeometry></mxCell><mxCell id="0dbk8oD-BahbHtxNB52f-19" value="email_contatto character varying(255)" style="shape=partialRectangle;overflow=hidden;connectable=0;fillColor=none;align=left;strokeColor=inherit;top=0;left=0;bottom=0;right=0;spacingLeft=6;" parent="0dbk8oD-BahbHtxNB52f-17" vertex="1"><mxGeometry x="30" width="290" height="30" as="geometry"><mxRectangle width="290" height="30" as="alternateBounds"/></mxGeometry></mxCell><mxCell id="0dbk8oD-BahbHtxNB52f-20" value="" style="shape=tableRow;horizontal=0;startSize=0;swimlaneHead=0;swimlaneBody=0;fillColor=none;collapsible=0;dropTarget=0;points=[[0,0.5],[1,0.5]];portConstraint=eastwest;strokeColor=inherit;top=0;left=0;right=0;bottom=0;" parent="0dbk8oD-BahbHtxNB52f-1" vertex="1"><mxGeometry y="210" width="320" height="30" as="geometry"/></mxCell><mxCell id="0dbk8oD-BahbHtxNB52f-21" value="" style="shape=partialRectangle;overflow=hidden;connectable=0;fillColor=none;strokeColor=inherit;top=0;left=0;bottom=0;right=0;" parent="0dbk8oD-BahbHtxNB52f-20" vertex="1"><mxGeometry width="30" height="30" as="geometry"><mxRectangle width="30" height="30" as="alternateBounds"/></mxGeometry></mxCell><mxCell id="0dbk8oD-BahbHtxNB52f-22" value="fatturato_annuale numeric(19,2)" style="shape=partialRectangle;overflow=hidden;connectable=0;fillColor=none;align=left;strokeColor=inherit;top=0;left=0;bottom=0;right=0;spacingLeft=6;" parent="0dbk8oD-BahbHtxNB52f-20" vertex="1"><mxGeometry x="30" width="290" height="30" as="geometry"><mxRectangle width="290" height="30" as="alternateBounds"/></mxGeometry></mxCell><mxCell id="0dbk8oD-BahbHtxNB52f-23" value="" style="shape=tableRow;horizontal=0;startSize=0;swimlaneHead=0;swimlaneBody=0;fillColor=none;collapsible=0;dropTarget=0;points=[[0,0.5],[1,0.5]];portConstraint=eastwest;strokeColor=inherit;top=0;left=0;right=0;bottom=0;" parent="0dbk8oD-BahbHtxNB52f-1" vertex="1"><mxGeometry y="240" width="320" height="30" as="geometry"/></mxCell><mxCell id="0dbk8oD-BahbHtxNB52f-24" value="" style="shape=partialRectangle;overflow=hidden;connectable=0;fillColor=none;strokeColor=inherit;top=0;left=0;bottom=0;right=0;" parent="0dbk8oD-BahbHtxNB52f-23" vertex="1"><mxGeometry width="30" height="30" as="geometry"><mxRectangle width="30" height="30" as="alternateBounds"/></mxGeometry></mxCell><mxCell id="0dbk8oD-BahbHtxNB52f-25" value="nome_contatto character varying(255)" style="shape=partialRectangle;overflow=hidden;connectable=0;fillColor=none;align=left;strokeColor=inherit;top=0;left=0;bottom=0;right=0;spacingLeft=6;" parent="0dbk8oD-BahbHtxNB52f-23" vertex="1"><mxGeometry x="30" width="290" height="30" as="geometry"><mxRectangle width="290" height="30" as="alternateBounds"/></mxGeometry></mxCell><mxCell id="0dbk8oD-BahbHtxNB52f-26" value="" style="shape=tableRow;horizontal=0;startSize=0;swimlaneHead=0;swimlaneBody=0;fillColor=none;collapsible=0;dropTarget=0;points=[[0,0.5],[1,0.5]];portConstraint=eastwest;strokeColor=inherit;top=0;left=0;right=0;bottom=0;" parent="0dbk8oD-BahbHtxNB52f-1" vertex="1"><mxGeometry y="270" width="320" height="30" as="geometry"/></mxCell><mxCell id="0dbk8oD-BahbHtxNB52f-27" value="" style="shape=partialRectangle;overflow=hidden;connectable=0;fillColor=none;strokeColor=inherit;top=0;left=0;bottom=0;right=0;" parent="0dbk8oD-BahbHtxNB52f-26" vertex="1"><mxGeometry width="30" height="30" as="geometry"><mxRectangle width="30" height="30" as="alternateBounds"/></mxGeometry></mxCell><mxCell id="0dbk8oD-BahbHtxNB52f-28" value="partita_iva character varying(255)" style="shape=partialRectangle;overflow=hidden;connectable=0;fillColor=none;align=left;strokeColor=inherit;top=0;left=0;bottom=0;right=0;spacingLeft=6;" parent="0dbk8oD-BahbHtxNB52f-26" vertex="1"><mxGeometry x="30" width="290" height="30" as="geometry"><mxRectangle width="290" height="30" as="alternateBounds"/></mxGeometry></mxCell><mxCell id="0dbk8oD-BahbHtxNB52f-29" value="" style="shape=tableRow;horizontal=0;startSize=0;swimlaneHead=0;swimlaneBody=0;fillColor=none;collapsible=0;dropTarget=0;points=[[0,0.5],[1,0.5]];portConstraint=eastwest;strokeColor=inherit;top=0;left=0;right=0;bottom=0;" parent="0dbk8oD-BahbHtxNB52f-1" vertex="1"><mxGeometry y="300" width="320" height="30" as="geometry"/></mxCell><mxCell id="0dbk8oD-BahbHtxNB52f-30" value="" style="shape=partialRectangle;overflow=hidden;connectable=0;fillColor=none;strokeColor=inherit;top=0;left=0;bottom=0;right=0;" parent="0dbk8oD-BahbHtxNB52f-29" vertex="1"><mxGeometry width="30" height="30" as="geometry"><mxRectangle width="30" height="30" as="alternateBounds"/></mxGeometry></mxCell><mxCell id="0dbk8oD-BahbHtxNB52f-31" value="pec character varying(255)" style="shape=partialRectangle;overflow=hidden;connectable=0;fillColor=none;align=left;strokeColor=inherit;top=0;left=0;bottom=0;right=0;spacingLeft=6;" parent="0dbk8oD-BahbHtxNB52f-29" vertex="1"><mxGeometry x="30" width="290" height="30" as="geometry"><mxRectangle width="290" height="30" as="alternateBounds"/></mxGeometry></mxCell><mxCell id="0dbk8oD-BahbHtxNB52f-32" value="" style="shape=tableRow;horizontal=0;startSize=0;swimlaneHead=0;swimlaneBody=0;fillColor=none;collapsible=0;dropTarget=0;points=[[0,0.5],[1,0.5]];portConstraint=eastwest;strokeColor=inherit;top=0;left=0;right=0;bottom=0;" parent="0dbk8oD-BahbHtxNB52f-1" vertex="1"><mxGeometry y="330" width="320" height="30" as="geometry"/></mxCell><mxCell id="0dbk8oD-BahbHtxNB52f-33" value="" style="shape=partialRectangle;overflow=hidden;connectable=0;fillColor=none;strokeColor=inherit;top=0;left=0;bottom=0;right=0;" parent="0dbk8oD-BahbHtxNB52f-32" vertex="1"><mxGeometry width="30" height="30" as="geometry"><mxRectangle width="30" height="30" as="alternateBounds"/></mxGeometry></mxCell><mxCell id="0dbk8oD-BahbHtxNB52f-34" value="ragione_sociale character varying(255)" style="shape=partialRectangle;overflow=hidden;connectable=0;fillColor=none;align=left;strokeColor=inherit;top=0;left=0;bottom=0;right=0;spacingLeft=6;" parent="0dbk8oD-BahbHtxNB52f-32" vertex="1"><mxGeometry x="30" width="290" height="30" as="geometry"><mxRectangle width="290" height="30" as="alternateBounds"/></mxGeometry></mxCell><mxCell id="0dbk8oD-BahbHtxNB52f-35" value="" style="shape=tableRow;horizontal=0;startSize=0;swimlaneHead=0;swimlaneBody=0;fillColor=none;collapsible=0;dropTarget=0;points=[[0,0.5],[1,0.5]];portConstraint=eastwest;strokeColor=inherit;top=0;left=0;right=0;bottom=0;" parent="0dbk8oD-BahbHtxNB52f-1" vertex="1"><mxGeometry y="360" width="320" height="30" as="geometry"/></mxCell><mxCell id="0dbk8oD-BahbHtxNB52f-36" value="" style="shape=partialRectangle;overflow=hidden;connectable=0;fillColor=none;strokeColor=inherit;top=0;left=0;bottom=0;right=0;" parent="0dbk8oD-BahbHtxNB52f-35" vertex="1"><mxGeometry width="30" height="30" as="geometry"><mxRectangle width="30" height="30" as="alternateBounds"/></mxGeometry></mxCell><mxCell id="0dbk8oD-BahbHtxNB52f-37" value="telefono character varying(255)" style="shape=partialRectangle;overflow=hidden;connectable=0;fillColor=none;align=left;strokeColor=inherit;top=0;left=0;bottom=0;right=0;spacingLeft=6;" parent="0dbk8oD-BahbHtxNB52f-35" vertex="1"><mxGeometry x="30" width="290" height="30" as="geometry"><mxRectangle width="290" height="30" as="alternateBounds"/></mxGeometry></mxCell><mxCell id="0dbk8oD-BahbHtxNB52f-38" value="" style="shape=tableRow;horizontal=0;startSize=0;swimlaneHead=0;swimlaneBody=0;fillColor=none;collapsible=0;dropTarget=0;points=[[0,0.5],[1,0.5]];portConstraint=eastwest;strokeColor=inherit;top=0;left=0;right=0;bottom=0;" parent="0dbk8oD-BahbHtxNB52f-1" vertex="1"><mxGeometry y="390" width="320" height="30" as="geometry"/></mxCell><mxCell id="0dbk8oD-BahbHtxNB52f-39" value="" style="shape=partialRectangle;overflow=hidden;connectable=0;fillColor=none;strokeColor=inherit;top=0;left=0;bottom=0;right=0;" parent="0dbk8oD-BahbHtxNB52f-38" vertex="1"><mxGeometry width="30" height="30" as="geometry"><mxRectangle width="30" height="30" as="alternateBounds"/></mxGeometry></mxCell><mxCell id="0dbk8oD-BahbHtxNB52f-40" value="telefono_contatto character varying(255)" style="shape=partialRectangle;overflow=hidden;connectable=0;fillColor=none;align=left;strokeColor=inherit;top=0;left=0;bottom=0;right=0;spacingLeft=6;" parent="0dbk8oD-BahbHtxNB52f-38" vertex="1"><mxGeometry x="30" width="290" height="30" as="geometry"><mxRectangle width="290" height="30" as="alternateBounds"/></mxGeometry></mxCell><mxCell id="0dbk8oD-BahbHtxNB52f-41" value="" style="shape=tableRow;horizontal=0;startSize=0;swimlaneHead=0;swimlaneBody=0;fillColor=none;collapsible=0;dropTarget=0;points=[[0,0.5],[1,0.5]];portConstraint=eastwest;strokeColor=inherit;top=0;left=0;right=0;bottom=0;" parent="0dbk8oD-BahbHtxNB52f-1" vertex="1"><mxGeometry y="420" width="320" height="30" as="geometry"/></mxCell><mxCell id="0dbk8oD-BahbHtxNB52f-42" value="fK" style="shape=partialRectangle;overflow=hidden;connectable=0;fillColor=none;strokeColor=inherit;top=0;left=0;bottom=0;right=0;" parent="0dbk8oD-BahbHtxNB52f-41" vertex="1"><mxGeometry width="30" height="30" as="geometry"><mxRectangle width="30" height="30" as="alternateBounds"/></mxGeometry></mxCell><mxCell id="0dbk8oD-BahbHtxNB52f-43" value="tipo_cliente_id UUID" style="shape=partialRectangle;overflow=hidden;connectable=0;fillColor=#d80073;align=left;strokeColor=#A50040;top=0;left=0;bottom=0;right=0;spacingLeft=6;fontColor=#ffffff;" parent="0dbk8oD-BahbHtxNB52f-41" vertex="1"><mxGeometry x="30" width="290" height="30" as="geometry"><mxRectangle width="290" height="30" as="alternateBounds"/></mxGeometry></mxCell><mxCell id="0dbk8oD-BahbHtxNB52f-44" value="" style="shape=tableRow;horizontal=0;startSize=0;swimlaneHead=0;swimlaneBody=0;fillColor=none;collapsible=0;dropTarget=0;points=[[0,0.5],[1,0.5]];portConstraint=eastwest;strokeColor=inherit;top=0;left=0;right=0;bottom=0;" parent="0dbk8oD-BahbHtxNB52f-1" vertex="1"><mxGeometry y="450" width="320" height="30" as="geometry"/></mxCell><mxCell id="0dbk8oD-BahbHtxNB52f-45" value="fK" style="shape=partialRectangle;overflow=hidden;connectable=0;fillColor=none;strokeColor=inherit;top=0;left=0;bottom=0;right=0;" parent="0dbk8oD-BahbHtxNB52f-44" vertex="1"><mxGeometry width="30" height="30" as="geometry"><mxRectangle width="30" height="30" as="alternateBounds"/></mxGeometry></mxCell><mxCell id="0dbk8oD-BahbHtxNB52f-46" value="indirizzo_sede_legale_id UUID" style="shape=partialRectangle;overflow=hidden;connectable=0;fillColor=#d80073;align=left;strokeColor=#A50040;top=0;left=0;bottom=0;right=0;spacingLeft=6;fontColor=#ffffff;" parent="0dbk8oD-BahbHtxNB52f-44" vertex="1"><mxGeometry x="30" width="290" height="30" as="geometry"><mxRectangle width="290" height="30" as="alternateBounds"/></mxGeometry></mxCell><mxCell id="0dbk8oD-BahbHtxNB52f-47" value="" style="shape=tableRow;horizontal=0;startSize=0;swimlaneHead=0;swimlaneBody=0;fillColor=none;collapsible=0;dropTarget=0;points=[[0,0.5],[1,0.5]];portConstraint=eastwest;strokeColor=inherit;top=0;left=0;right=0;bottom=0;" parent="0dbk8oD-BahbHtxNB52f-1" vertex="1"><mxGeometry y="480" width="320" height="30" as="geometry"/></mxCell><mxCell id="0dbk8oD-BahbHtxNB52f-48" value="fK" style="shape=partialRectangle;overflow=hidden;connectable=0;fillColor=none;strokeColor=inherit;top=0;left=0;bottom=0;right=0;" parent="0dbk8oD-BahbHtxNB52f-47" vertex="1"><mxGeometry width="30" height="30" as="geometry"><mxRectangle width="30" height="30" as="alternateBounds"/></mxGeometry></mxCell><mxCell id="0dbk8oD-BahbHtxNB52f-49" value="indirizzo_sede_operativa_id UUID" style="shape=partialRectangle;overflow=hidden;connectable=0;fillColor=#d80073;align=left;strokeColor=#A50040;top=0;left=0;bottom=0;right=0;spacingLeft=6;fontColor=#ffffff;" parent="0dbk8oD-BahbHtxNB52f-47" vertex="1"><mxGeometry x="30" width="290" height="30" as="geometry"><mxRectangle width="290" height="30" as="alternateBounds"/></mxGeometry></mxCell><mxCell id="0dbk8oD-BahbHtxNB52f-50" value="beu2bw.comuni" style="shape=table;startSize=30;container=1;collapsible=1;childLayout=tableLayout;fixedRows=1;rowLines=0;fontStyle=1;align=center;resizeLast=1;" parent="1" vertex="1"><mxGeometry x="-605" y="40" width="320" height="120" as="geometry"/></mxCell><mxCell id="0dbk8oD-BahbHtxNB52f-51" value="" style="shape=tableRow;horizontal=0;startSize=0;swimlaneHead=0;swimlaneBody=0;fillColor=none;collapsible=0;dropTarget=0;points=[[0,0.5],[1,0.5]];portConstraint=eastwest;strokeColor=inherit;top=0;left=0;right=0;bottom=0;" parent="0dbk8oD-BahbHtxNB52f-50" vertex="1"><mxGeometry y="30" width="320" height="30" as="geometry"/></mxCell><mxCell id="0dbk8oD-BahbHtxNB52f-52" value="PK" style="shape=partialRectangle;overflow=hidden;connectable=0;fillColor=none;strokeColor=inherit;top=0;left=0;bottom=0;right=0;" parent="0dbk8oD-BahbHtxNB52f-51" vertex="1"><mxGeometry width="30" height="30" as="geometry"><mxRectangle width="30" height="30" as="alternateBounds"/></mxGeometry></mxCell><mxCell id="0dbk8oD-BahbHtxNB52f-53" value="id int NOT NULL" style="shape=partialRectangle;overflow=hidden;connectable=0;fillColor=none;align=left;strokeColor=inherit;top=0;left=0;bottom=0;right=0;spacingLeft=6;" parent="0dbk8oD-BahbHtxNB52f-51" vertex="1"><mxGeometry x="30" width="290" height="30" as="geometry"><mxRectangle width="290" height="30" as="alternateBounds"/></mxGeometry></mxCell><mxCell id="0dbk8oD-BahbHtxNB52f-54" value="" style="shape=tableRow;horizontal=0;startSize=0;swimlaneHead=0;swimlaneBody=0;fillColor=none;collapsible=0;dropTarget=0;points=[[0,0.5],[1,0.5]];portConstraint=eastwest;strokeColor=inherit;top=0;left=0;right=0;bottom=0;" parent="0dbk8oD-BahbHtxNB52f-50" vertex="1"><mxGeometry y="60" width="320" height="30" as="geometry"/></mxCell><mxCell id="0dbk8oD-BahbHtxNB52f-55" value="" style="shape=partialRectangle;overflow=hidden;connectable=0;fillColor=none;strokeColor=inherit;top=0;left=0;bottom=0;right=0;" parent="0dbk8oD-BahbHtxNB52f-54" vertex="1"><mxGeometry width="30" height="30" as="geometry"><mxRectangle width="30" height="30" as="alternateBounds"/></mxGeometry></mxCell><mxCell id="0dbk8oD-BahbHtxNB52f-56" value="nome character varying(255)" style="shape=partialRectangle;overflow=hidden;connectable=0;fillColor=none;align=left;strokeColor=inherit;top=0;left=0;bottom=0;right=0;spacingLeft=6;" parent="0dbk8oD-BahbHtxNB52f-54" vertex="1"><mxGeometry x="30" width="290" height="30" as="geometry"><mxRectangle width="290" height="30" as="alternateBounds"/></mxGeometry></mxCell><mxCell id="0dbk8oD-BahbHtxNB52f-57" value="" style="shape=tableRow;horizontal=0;startSize=0;swimlaneHead=0;swimlaneBody=0;fillColor=none;collapsible=0;dropTarget=0;points=[[0,0.5],[1,0.5]];portConstraint=eastwest;strokeColor=inherit;top=0;left=0;right=0;bottom=0;" parent="0dbk8oD-BahbHtxNB52f-50" vertex="1"><mxGeometry y="90" width="320" height="30" as="geometry"/></mxCell><mxCell id="0dbk8oD-BahbHtxNB52f-58" value="" style="shape=partialRectangle;overflow=hidden;connectable=0;fillColor=none;strokeColor=inherit;top=0;left=0;bottom=0;right=0;" parent="0dbk8oD-BahbHtxNB52f-57" vertex="1"><mxGeometry width="30" height="30" as="geometry"><mxRectangle width="30" height="30" as="alternateBounds"/></mxGeometry></mxCell><mxCell id="0dbk8oD-BahbHtxNB52f-59" value="provincia_id int" style="shape=partialRectangle;overflow=hidden;connectable=0;fillColor=#d80073;align=left;strokeColor=#A50040;top=0;left=0;bottom=0;right=0;spacingLeft=6;fontColor=#ffffff;" parent="0dbk8oD-BahbHtxNB52f-57" vertex="1"><mxGeometry x="30" width="290" height="30" as="geometry"><mxRectangle width="290" height="30" as="alternateBounds"/></mxGeometry></mxCell><mxCell id="0dbk8oD-BahbHtxNB52f-60" value="beu2bw.fatture" style="shape=table;startSize=30;container=1;collapsible=1;childLayout=tableLayout;fixedRows=1;rowLines=0;fontStyle=1;align=center;resizeLast=1;" parent="1" vertex="1"><mxGeometry x="-1500" y="620" width="320" height="240" as="geometry"/></mxCell><mxCell id="0dbk8oD-BahbHtxNB52f-61" value="" style="shape=tableRow;horizontal=0;startSize=0;swimlaneHead=0;swimlaneBody=0;fillColor=none;collapsible=0;dropTarget=0;points=[[0,0.5],[1,0.5]];portConstraint=eastwest;strokeColor=inherit;top=0;left=0;right=0;bottom=0;" parent="0dbk8oD-BahbHtxNB52f-60" vertex="1"><mxGeometry y="30" width="320" height="30" as="geometry"/></mxCell><mxCell id="0dbk8oD-BahbHtxNB52f-62" value="PK" style="shape=partialRectangle;overflow=hidden;connectable=0;fillColor=none;strokeColor=inherit;top=0;left=0;bottom=0;right=0;" parent="0dbk8oD-BahbHtxNB52f-61" vertex="1"><mxGeometry width="30" height="30" as="geometry"><mxRectangle width="30" height="30" as="alternateBounds"/></mxGeometry></mxCell><mxCell id="0dbk8oD-BahbHtxNB52f-63" value="id UUID NOT NULL" style="shape=partialRectangle;overflow=hidden;connectable=0;fillColor=none;align=left;strokeColor=inherit;top=0;left=0;bottom=0;right=0;spacingLeft=6;" parent="0dbk8oD-BahbHtxNB52f-61" vertex="1"><mxGeometry x="30" width="290" height="30" as="geometry"><mxRectangle width="290" height="30" as="alternateBounds"/></mxGeometry></mxCell><mxCell id="0dbk8oD-BahbHtxNB52f-64" value="" style="shape=tableRow;horizontal=0;startSize=0;swimlaneHead=0;swimlaneBody=0;fillColor=none;collapsible=0;dropTarget=0;points=[[0,0.5],[1,0.5]];portConstraint=eastwest;strokeColor=inherit;top=0;left=0;right=0;bottom=0;" parent="0dbk8oD-BahbHtxNB52f-60" vertex="1"><mxGeometry y="60" width="320" height="30" as="geometry"/></mxCell><mxCell id="0dbk8oD-BahbHtxNB52f-65" value="" style="shape=partialRectangle;overflow=hidden;connectable=0;fillColor=none;strokeColor=inherit;top=0;left=0;bottom=0;right=0;" parent="0dbk8oD-BahbHtxNB52f-64" vertex="1"><mxGeometry width="30" height="30" as="geometry"><mxRectangle width="30" height="30" as="alternateBounds"/></mxGeometry></mxCell><mxCell id="0dbk8oD-BahbHtxNB52f-66" value="anno integer" style="shape=partialRectangle;overflow=hidden;connectable=0;fillColor=none;align=left;strokeColor=inherit;top=0;left=0;bottom=0;right=0;spacingLeft=6;" parent="0dbk8oD-BahbHtxNB52f-64" vertex="1"><mxGeometry x="30" width="290" height="30" as="geometry"><mxRectangle width="290" height="30" as="alternateBounds"/></mxGeometry></mxCell><mxCell id="0dbk8oD-BahbHtxNB52f-67" value="" style="shape=tableRow;horizontal=0;startSize=0;swimlaneHead=0;swimlaneBody=0;fillColor=none;collapsible=0;dropTarget=0;points=[[0,0.5],[1,0.5]];portConstraint=eastwest;strokeColor=inherit;top=0;left=0;right=0;bottom=0;" parent="0dbk8oD-BahbHtxNB52f-60" vertex="1"><mxGeometry y="90" width="320" height="30" as="geometry"/></mxCell><mxCell id="0dbk8oD-BahbHtxNB52f-68" value="" style="shape=partialRectangle;overflow=hidden;connectable=0;fillColor=none;strokeColor=inherit;top=0;left=0;bottom=0;right=0;" parent="0dbk8oD-BahbHtxNB52f-67" vertex="1"><mxGeometry width="30" height="30" as="geometry"><mxRectangle width="30" height="30" as="alternateBounds"/></mxGeometry></mxCell><mxCell id="0dbk8oD-BahbHtxNB52f-69" value="data timestamp without time zone" style="shape=partialRectangle;overflow=hidden;connectable=0;fillColor=none;align=left;strokeColor=inherit;top=0;left=0;bottom=0;right=0;spacingLeft=6;" parent="0dbk8oD-BahbHtxNB52f-67" vertex="1"><mxGeometry x="30" width="290" height="30" as="geometry"><mxRectangle width="290" height="30" as="alternateBounds"/></mxGeometry></mxCell><mxCell id="0dbk8oD-BahbHtxNB52f-70" value="" style="shape=tableRow;horizontal=0;startSize=0;swimlaneHead=0;swimlaneBody=0;fillColor=none;collapsible=0;dropTarget=0;points=[[0,0.5],[1,0.5]];portConstraint=eastwest;strokeColor=inherit;top=0;left=0;right=0;bottom=0;" parent="0dbk8oD-BahbHtxNB52f-60" vertex="1"><mxGeometry y="120" width="320" height="30" as="geometry"/></mxCell><mxCell id="0dbk8oD-BahbHtxNB52f-71" value="" style="shape=partialRectangle;overflow=hidden;connectable=0;fillColor=none;strokeColor=inherit;top=0;left=0;bottom=0;right=0;" parent="0dbk8oD-BahbHtxNB52f-70" vertex="1"><mxGeometry width="30" height="30" as="geometry"><mxRectangle width="30" height="30" as="alternateBounds"/></mxGeometry></mxCell><mxCell id="0dbk8oD-BahbHtxNB52f-72" value="importo numeric(19,2)" style="shape=partialRectangle;overflow=hidden;connectable=0;fillColor=none;align=left;strokeColor=inherit;top=0;left=0;bottom=0;right=0;spacingLeft=6;" parent="0dbk8oD-BahbHtxNB52f-70" vertex="1"><mxGeometry x="30" width="290" height="30" as="geometry"><mxRectangle width="290" height="30" as="alternateBounds"/></mxGeometry></mxCell><mxCell id="0dbk8oD-BahbHtxNB52f-73" value="" style="shape=tableRow;horizontal=0;startSize=0;swimlaneHead=0;swimlaneBody=0;fillColor=none;collapsible=0;dropTarget=0;points=[[0,0.5],[1,0.5]];portConstraint=eastwest;strokeColor=inherit;top=0;left=0;right=0;bottom=0;" parent="0dbk8oD-BahbHtxNB52f-60" vertex="1"><mxGeometry y="150" width="320" height="30" as="geometry"/></mxCell><mxCell id="0dbk8oD-BahbHtxNB52f-74" value="" style="shape=partialRectangle;overflow=hidden;connectable=0;fillColor=none;strokeColor=inherit;top=0;left=0;bottom=0;right=0;" parent="0dbk8oD-BahbHtxNB52f-73" vertex="1"><mxGeometry width="30" height="30" as="geometry"><mxRectangle width="30" height="30" as="alternateBounds"/></mxGeometry></mxCell><mxCell id="0dbk8oD-BahbHtxNB52f-75" value="numero integer" style="shape=partialRectangle;overflow=hidden;connectable=0;fillColor=none;align=left;strokeColor=inherit;top=0;left=0;bottom=0;right=0;spacingLeft=6;" parent="0dbk8oD-BahbHtxNB52f-73" vertex="1"><mxGeometry x="30" width="290" height="30" as="geometry"><mxRectangle width="290" height="30" as="alternateBounds"/></mxGeometry></mxCell><mxCell id="0dbk8oD-BahbHtxNB52f-76" value="" style="shape=tableRow;horizontal=0;startSize=0;swimlaneHead=0;swimlaneBody=0;fillColor=none;collapsible=0;dropTarget=0;points=[[0,0.5],[1,0.5]];portConstraint=eastwest;strokeColor=inherit;top=0;left=0;right=0;bottom=0;" parent="0dbk8oD-BahbHtxNB52f-60" vertex="1"><mxGeometry y="180" width="320" height="30" as="geometry"/></mxCell><mxCell id="0dbk8oD-BahbHtxNB52f-77" value="fK" style="shape=partialRectangle;overflow=hidden;connectable=0;fillColor=none;strokeColor=inherit;top=0;left=0;bottom=0;right=0;" parent="0dbk8oD-BahbHtxNB52f-76" vertex="1"><mxGeometry width="30" height="30" as="geometry"><mxRectangle width="30" height="30" as="alternateBounds"/></mxGeometry></mxCell><mxCell id="0dbk8oD-BahbHtxNB52f-78" value="cliente_id UUID" style="shape=partialRectangle;overflow=hidden;connectable=0;fillColor=#d80073;align=left;strokeColor=#A50040;top=0;left=0;bottom=0;right=0;spacingLeft=6;fontColor=#ffffff;" parent="0dbk8oD-BahbHtxNB52f-76" vertex="1"><mxGeometry x="30" width="290" height="30" as="geometry"><mxRectangle width="290" height="30" as="alternateBounds"/></mxGeometry></mxCell><mxCell id="0dbk8oD-BahbHtxNB52f-79" value="" style="shape=tableRow;horizontal=0;startSize=0;swimlaneHead=0;swimlaneBody=0;fillColor=none;collapsible=0;dropTarget=0;points=[[0,0.5],[1,0.5]];portConstraint=eastwest;strokeColor=inherit;top=0;left=0;right=0;bottom=0;" parent="0dbk8oD-BahbHtxNB52f-60" vertex="1"><mxGeometry y="210" width="320" height="30" as="geometry"/></mxCell><mxCell id="0dbk8oD-BahbHtxNB52f-80" value="fK" style="shape=partialRectangle;overflow=hidden;connectable=0;fillColor=none;strokeColor=inherit;top=0;left=0;bottom=0;right=0;" parent="0dbk8oD-BahbHtxNB52f-79" vertex="1"><mxGeometry width="30" height="30" as="geometry"><mxRectangle width="30" height="30" as="alternateBounds"/></mxGeometry></mxCell><mxCell id="0dbk8oD-BahbHtxNB52f-81" value="stato_id UUID" style="shape=partialRectangle;overflow=hidden;connectable=0;fillColor=#d80073;align=left;strokeColor=#A50040;top=0;left=0;bottom=0;right=0;spacingLeft=6;fontColor=#ffffff;" parent="0dbk8oD-BahbHtxNB52f-79" vertex="1"><mxGeometry x="30" width="290" height="30" as="geometry"><mxRectangle width="290" height="30" as="alternateBounds"/></mxGeometry></mxCell><mxCell id="0dbk8oD-BahbHtxNB52f-82" value="beu2bw.indirizzi" style="shape=table;startSize=30;container=1;collapsible=1;childLayout=tableLayout;fixedRows=1;rowLines=0;fontStyle=1;align=center;resizeLast=1;" parent="1" vertex="1"><mxGeometry x="-595" y="400" width="320" height="210" as="geometry"/></mxCell><mxCell id="0dbk8oD-BahbHtxNB52f-83" value="" style="shape=tableRow;horizontal=0;startSize=0;swimlaneHead=0;swimlaneBody=0;fillColor=none;collapsible=0;dropTarget=0;points=[[0,0.5],[1,0.5]];portConstraint=eastwest;strokeColor=inherit;top=0;left=0;right=0;bottom=0;" parent="0dbk8oD-BahbHtxNB52f-82" vertex="1"><mxGeometry y="30" width="320" height="30" as="geometry"/></mxCell><mxCell id="0dbk8oD-BahbHtxNB52f-84" value="PK" style="shape=partialRectangle;overflow=hidden;connectable=0;fillColor=none;strokeColor=inherit;top=0;left=0;bottom=0;right=0;" parent="0dbk8oD-BahbHtxNB52f-83" vertex="1"><mxGeometry width="30" height="30" as="geometry"><mxRectangle width="30" height="30" as="alternateBounds"/></mxGeometry></mxCell><mxCell id="0dbk8oD-BahbHtxNB52f-85" value="id UUID NOT NULL" style="shape=partialRectangle;overflow=hidden;connectable=0;fillColor=none;align=left;strokeColor=inherit;top=0;left=0;bottom=0;right=0;spacingLeft=6;" parent="0dbk8oD-BahbHtxNB52f-83" vertex="1"><mxGeometry x="30" width="290" height="30" as="geometry"><mxRectangle width="290" height="30" as="alternateBounds"/></mxGeometry></mxCell><mxCell id="0dbk8oD-BahbHtxNB52f-86" value="" style="shape=tableRow;horizontal=0;startSize=0;swimlaneHead=0;swimlaneBody=0;fillColor=none;collapsible=0;dropTarget=0;points=[[0,0.5],[1,0.5]];portConstraint=eastwest;strokeColor=inherit;top=0;left=0;right=0;bottom=0;" parent="0dbk8oD-BahbHtxNB52f-82" vertex="1"><mxGeometry y="60" width="320" height="30" as="geometry"/></mxCell><mxCell id="0dbk8oD-BahbHtxNB52f-87" value="" style="shape=partialRectangle;overflow=hidden;connectable=0;fillColor=none;strokeColor=inherit;top=0;left=0;bottom=0;right=0;" parent="0dbk8oD-BahbHtxNB52f-86" vertex="1"><mxGeometry width="30" height="30" as="geometry"><mxRectangle width="30" height="30" as="alternateBounds"/></mxGeometry></mxCell><mxCell id="0dbk8oD-BahbHtxNB52f-88" value="cap character varying(255)" style="shape=partialRectangle;overflow=hidden;connectable=0;fillColor=none;align=left;strokeColor=inherit;top=0;left=0;bottom=0;right=0;spacingLeft=6;" parent="0dbk8oD-BahbHtxNB52f-86" vertex="1"><mxGeometry x="30" width="290" height="30" as="geometry"><mxRectangle width="290" height="30" as="alternateBounds"/></mxGeometry></mxCell><mxCell id="0dbk8oD-BahbHtxNB52f-89" value="" style="shape=tableRow;horizontal=0;startSize=0;swimlaneHead=0;swimlaneBody=0;fillColor=none;collapsible=0;dropTarget=0;points=[[0,0.5],[1,0.5]];portConstraint=eastwest;strokeColor=inherit;top=0;left=0;right=0;bottom=0;" parent="0dbk8oD-BahbHtxNB52f-82" vertex="1"><mxGeometry y="90" width="320" height="30" as="geometry"/></mxCell><mxCell id="0dbk8oD-BahbHtxNB52f-90" value="" style="shape=partialRectangle;overflow=hidden;connectable=0;fillColor=none;strokeColor=inherit;top=0;left=0;bottom=0;right=0;" parent="0dbk8oD-BahbHtxNB52f-89" vertex="1"><mxGeometry width="30" height="30" as="geometry"><mxRectangle width="30" height="30" as="alternateBounds"/></mxGeometry></mxCell><mxCell id="0dbk8oD-BahbHtxNB52f-91" value="civico character varying(255)" style="shape=partialRectangle;overflow=hidden;connectable=0;fillColor=none;align=left;strokeColor=inherit;top=0;left=0;bottom=0;right=0;spacingLeft=6;" parent="0dbk8oD-BahbHtxNB52f-89" vertex="1"><mxGeometry x="30" width="290" height="30" as="geometry"><mxRectangle width="290" height="30" as="alternateBounds"/></mxGeometry></mxCell><mxCell id="0dbk8oD-BahbHtxNB52f-92" value="" style="shape=tableRow;horizontal=0;startSize=0;swimlaneHead=0;swimlaneBody=0;fillColor=none;collapsible=0;dropTarget=0;points=[[0,0.5],[1,0.5]];portConstraint=eastwest;strokeColor=inherit;top=0;left=0;right=0;bottom=0;" parent="0dbk8oD-BahbHtxNB52f-82" vertex="1"><mxGeometry y="120" width="320" height="30" as="geometry"/></mxCell><mxCell id="0dbk8oD-BahbHtxNB52f-93" value="" style="shape=partialRectangle;overflow=hidden;connectable=0;fillColor=none;strokeColor=inherit;top=0;left=0;bottom=0;right=0;" parent="0dbk8oD-BahbHtxNB52f-92" vertex="1"><mxGeometry width="30" height="30" as="geometry"><mxRectangle width="30" height="30" as="alternateBounds"/></mxGeometry></mxCell><mxCell id="0dbk8oD-BahbHtxNB52f-94" value="localita character varying(255)" style="shape=partialRectangle;overflow=hidden;connectable=0;fillColor=none;align=left;strokeColor=inherit;top=0;left=0;bottom=0;right=0;spacingLeft=6;" parent="0dbk8oD-BahbHtxNB52f-92" vertex="1"><mxGeometry x="30" width="290" height="30" as="geometry"><mxRectangle width="290" height="30" as="alternateBounds"/></mxGeometry></mxCell><mxCell id="0dbk8oD-BahbHtxNB52f-95" value="" style="shape=tableRow;horizontal=0;startSize=0;swimlaneHead=0;swimlaneBody=0;fillColor=none;collapsible=0;dropTarget=0;points=[[0,0.5],[1,0.5]];portConstraint=eastwest;strokeColor=inherit;top=0;left=0;right=0;bottom=0;" parent="0dbk8oD-BahbHtxNB52f-82" vertex="1"><mxGeometry y="150" width="320" height="30" as="geometry"/></mxCell><mxCell id="0dbk8oD-BahbHtxNB52f-96" value="" style="shape=partialRectangle;overflow=hidden;connectable=0;fillColor=none;strokeColor=inherit;top=0;left=0;bottom=0;right=0;" parent="0dbk8oD-BahbHtxNB52f-95" vertex="1"><mxGeometry width="30" height="30" as="geometry"><mxRectangle width="30" height="30" as="alternateBounds"/></mxGeometry></mxCell><mxCell id="0dbk8oD-BahbHtxNB52f-97" value="via character varying(255)" style="shape=partialRectangle;overflow=hidden;connectable=0;fillColor=none;align=left;strokeColor=inherit;top=0;left=0;bottom=0;right=0;spacingLeft=6;" parent="0dbk8oD-BahbHtxNB52f-95" vertex="1"><mxGeometry x="30" width="290" height="30" as="geometry"><mxRectangle width="290" height="30" as="alternateBounds"/></mxGeometry></mxCell><mxCell id="0dbk8oD-BahbHtxNB52f-98" value="" style="shape=tableRow;horizontal=0;startSize=0;swimlaneHead=0;swimlaneBody=0;fillColor=none;collapsible=0;dropTarget=0;points=[[0,0.5],[1,0.5]];portConstraint=eastwest;strokeColor=inherit;top=0;left=0;right=0;bottom=0;" parent="0dbk8oD-BahbHtxNB52f-82" vertex="1"><mxGeometry y="180" width="320" height="30" as="geometry"/></mxCell><mxCell id="0dbk8oD-BahbHtxNB52f-99" value="fK" style="shape=partialRectangle;overflow=hidden;connectable=0;fillColor=none;strokeColor=inherit;top=0;left=0;bottom=0;right=0;" parent="0dbk8oD-BahbHtxNB52f-98" vertex="1"><mxGeometry width="30" height="30" as="geometry"><mxRectangle width="30" height="30" as="alternateBounds"/></mxGeometry></mxCell><mxCell id="0dbk8oD-BahbHtxNB52f-100" value="comune_id int" style="shape=partialRectangle;overflow=hidden;connectable=0;fillColor=#d80073;align=left;strokeColor=#A50040;top=0;left=0;bottom=0;right=0;spacingLeft=6;fontColor=#ffffff;" parent="0dbk8oD-BahbHtxNB52f-98" vertex="1"><mxGeometry x="30" width="290" height="30" as="geometry"><mxRectangle width="290" height="30" as="alternateBounds"/></mxGeometry></mxCell><mxCell id="0dbk8oD-BahbHtxNB52f-101" value="beu2bw.province" style="shape=table;startSize=30;container=1;collapsible=1;childLayout=tableLayout;fixedRows=1;rowLines=0;fontStyle=1;align=center;resizeLast=1;" parent="1" vertex="1"><mxGeometry x="-605" y="220" width="320" height="150" as="geometry"/></mxCell><mxCell id="0dbk8oD-BahbHtxNB52f-102" value="" style="shape=tableRow;horizontal=0;startSize=0;swimlaneHead=0;swimlaneBody=0;fillColor=none;collapsible=0;dropTarget=0;points=[[0,0.5],[1,0.5]];portConstraint=eastwest;strokeColor=inherit;top=0;left=0;right=0;bottom=0;" parent="0dbk8oD-BahbHtxNB52f-101" vertex="1"><mxGeometry y="30" width="320" height="30" as="geometry"/></mxCell><mxCell id="0dbk8oD-BahbHtxNB52f-103" value="PK" style="shape=partialRectangle;overflow=hidden;connectable=0;fillColor=none;strokeColor=inherit;top=0;left=0;bottom=0;right=0;" parent="0dbk8oD-BahbHtxNB52f-102" vertex="1"><mxGeometry width="30" height="30" as="geometry"><mxRectangle width="30" height="30" as="alternateBounds"/></mxGeometry></mxCell><mxCell id="0dbk8oD-BahbHtxNB52f-104" value="id int NOT NULL" style="shape=partialRectangle;overflow=hidden;connectable=0;fillColor=none;align=left;strokeColor=inherit;top=0;left=0;bottom=0;right=0;spacingLeft=6;" parent="0dbk8oD-BahbHtxNB52f-102" vertex="1"><mxGeometry x="30" width="290" height="30" as="geometry"><mxRectangle width="290" height="30" as="alternateBounds"/></mxGeometry></mxCell><mxCell id="0dbk8oD-BahbHtxNB52f-105" value="" style="shape=tableRow;horizontal=0;startSize=0;swimlaneHead=0;swimlaneBody=0;fillColor=none;collapsible=0;dropTarget=0;points=[[0,0.5],[1,0.5]];portConstraint=eastwest;strokeColor=inherit;top=0;left=0;right=0;bottom=0;" parent="0dbk8oD-BahbHtxNB52f-101" vertex="1"><mxGeometry y="60" width="320" height="30" as="geometry"/></mxCell><mxCell id="0dbk8oD-BahbHtxNB52f-106" value="" style="shape=partialRectangle;overflow=hidden;connectable=0;fillColor=none;strokeColor=inherit;top=0;left=0;bottom=0;right=0;" parent="0dbk8oD-BahbHtxNB52f-105" vertex="1"><mxGeometry width="30" height="30" as="geometry"><mxRectangle width="30" height="30" as="alternateBounds"/></mxGeometry></mxCell><mxCell id="0dbk8oD-BahbHtxNB52f-107" value="nome character varying(255)" style="shape=partialRectangle;overflow=hidden;connectable=0;fillColor=none;align=left;strokeColor=inherit;top=0;left=0;bottom=0;right=0;spacingLeft=6;" parent="0dbk8oD-BahbHtxNB52f-105" vertex="1"><mxGeometry x="30" width="290" height="30" as="geometry"><mxRectangle width="290" height="30" as="alternateBounds"/></mxGeometry></mxCell><mxCell id="0dbk8oD-BahbHtxNB52f-108" value="" style="shape=tableRow;horizontal=0;startSize=0;swimlaneHead=0;swimlaneBody=0;fillColor=none;collapsible=0;dropTarget=0;points=[[0,0.5],[1,0.5]];portConstraint=eastwest;strokeColor=inherit;top=0;left=0;right=0;bottom=0;" parent="0dbk8oD-BahbHtxNB52f-101" vertex="1"><mxGeometry y="90" width="320" height="30" as="geometry"/></mxCell><mxCell id="0dbk8oD-BahbHtxNB52f-109" value="" style="shape=partialRectangle;overflow=hidden;connectable=0;fillColor=none;strokeColor=inherit;top=0;left=0;bottom=0;right=0;" parent="0dbk8oD-BahbHtxNB52f-108" vertex="1"><mxGeometry width="30" height="30" as="geometry"><mxRectangle width="30" height="30" as="alternateBounds"/></mxGeometry></mxCell><mxCell id="0dbk8oD-BahbHtxNB52f-110" value="sigla character varying(255)" style="shape=partialRectangle;overflow=hidden;connectable=0;fillColor=none;align=left;strokeColor=inherit;top=0;left=0;bottom=0;right=0;spacingLeft=6;" parent="0dbk8oD-BahbHtxNB52f-108" vertex="1"><mxGeometry x="30" width="290" height="30" as="geometry"><mxRectangle width="290" height="30" as="alternateBounds"/></mxGeometry></mxCell><mxCell id="0dbk8oD-BahbHtxNB52f-152" value="" style="shape=tableRow;horizontal=0;startSize=0;swimlaneHead=0;swimlaneBody=0;fillColor=none;collapsible=0;dropTarget=0;points=[[0,0.5],[1,0.5]];portConstraint=eastwest;top=0;left=0;right=0;bottom=0;" parent="0dbk8oD-BahbHtxNB52f-101" vertex="1"><mxGeometry y="120" width="320" height="30" as="geometry"/></mxCell><mxCell id="0dbk8oD-BahbHtxNB52f-153" value="" style="shape=partialRectangle;connectable=0;fillColor=none;top=0;left=0;bottom=0;right=0;editable=1;overflow=hidden;" parent="0dbk8oD-BahbHtxNB52f-152" vertex="1"><mxGeometry width="30" height="30" as="geometry"><mxRectangle width="30" height="30" as="alternateBounds"/></mxGeometry></mxCell><mxCell id="0dbk8oD-BahbHtxNB52f-154" value="regione character varying(255)" style="shape=partialRectangle;connectable=0;fillColor=none;top=0;left=0;bottom=0;right=0;align=left;spacingLeft=6;overflow=hidden;" parent="0dbk8oD-BahbHtxNB52f-152" vertex="1"><mxGeometry x="30" width="290" height="30" as="geometry"><mxRectangle width="290" height="30" as="alternateBounds"/></mxGeometry></mxCell><mxCell id="0dbk8oD-BahbHtxNB52f-118" value="beu2bw.stato_fattura" style="shape=table;startSize=30;container=1;collapsible=1;childLayout=tableLayout;fixedRows=1;rowLines=0;fontStyle=1;align=center;resizeLast=1;" parent="1" vertex="1"><mxGeometry x="-1120" y="620" width="320" height="90" as="geometry"/></mxCell><mxCell id="0dbk8oD-BahbHtxNB52f-119" value="" style="shape=tableRow;horizontal=0;startSize=0;swimlaneHead=0;swimlaneBody=0;fillColor=none;collapsible=0;dropTarget=0;points=[[0,0.5],[1,0.5]];portConstraint=eastwest;strokeColor=inherit;top=0;left=0;right=0;bottom=0;" parent="0dbk8oD-BahbHtxNB52f-118" vertex="1"><mxGeometry y="30" width="320" height="30" as="geometry"/></mxCell><mxCell id="0dbk8oD-BahbHtxNB52f-120" value="PK" style="shape=partialRectangle;overflow=hidden;connectable=0;fillColor=none;strokeColor=inherit;top=0;left=0;bottom=0;right=0;" parent="0dbk8oD-BahbHtxNB52f-119" vertex="1"><mxGeometry width="30" height="30" as="geometry"><mxRectangle width="30" height="30" as="alternateBounds"/></mxGeometry></mxCell><mxCell id="0dbk8oD-BahbHtxNB52f-121" value="id UUID NOT NULL" style="shape=partialRectangle;overflow=hidden;connectable=0;fillColor=none;align=left;strokeColor=inherit;top=0;left=0;bottom=0;right=0;spacingLeft=6;" parent="0dbk8oD-BahbHtxNB52f-119" vertex="1"><mxGeometry x="30" width="290" height="30" as="geometry"><mxRectangle width="290" height="30" as="alternateBounds"/></mxGeometry></mxCell><mxCell id="0dbk8oD-BahbHtxNB52f-122" value="" style="shape=tableRow;horizontal=0;startSize=0;swimlaneHead=0;swimlaneBody=0;fillColor=none;collapsible=0;dropTarget=0;points=[[0,0.5],[1,0.5]];portConstraint=eastwest;strokeColor=inherit;top=0;left=0;right=0;bottom=0;" parent="0dbk8oD-BahbHtxNB52f-118" vertex="1"><mxGeometry y="60" width="320" height="30" as="geometry"/></mxCell><mxCell id="0dbk8oD-BahbHtxNB52f-123" value="" style="shape=partialRectangle;overflow=hidden;connectable=0;fillColor=none;strokeColor=inherit;top=0;left=0;bottom=0;right=0;" parent="0dbk8oD-BahbHtxNB52f-122" vertex="1"><mxGeometry width="30" height="30" as="geometry"><mxRectangle width="30" height="30" as="alternateBounds"/></mxGeometry></mxCell><mxCell id="0dbk8oD-BahbHtxNB52f-124" value="nome character varying(255)" style="shape=partialRectangle;overflow=hidden;connectable=0;fillColor=none;align=left;strokeColor=inherit;top=0;left=0;bottom=0;right=0;spacingLeft=6;" parent="0dbk8oD-BahbHtxNB52f-122" vertex="1"><mxGeometry x="30" width="290" height="30" as="geometry"><mxRectangle width="290" height="30" as="alternateBounds"/></mxGeometry></mxCell><mxCell id="0dbk8oD-BahbHtxNB52f-155" value="" style="edgeStyle=entityRelationEdgeStyle;fontSize=12;html=1;endArrow=ERoneToMany;rounded=0;" parent="1" source="0dbk8oD-BahbHtxNB52f-102" target="0dbk8oD-BahbHtxNB52f-57" edge="1"><mxGeometry width="100" height="100" relative="1" as="geometry"><mxPoint x="-745" y="280" as="sourcePoint"/><mxPoint x="-645" y="180" as="targetPoint"/></mxGeometry></mxCell><mxCell id="0dbk8oD-BahbHtxNB52f-125" value="beu2bw.utenti_ruoli" style="shape=table;startSize=30;container=1;collapsible=1;childLayout=tableLayout;fixedRows=1;rowLines=0;fontStyle=1;align=center;resizeLast=1;" parent="1" vertex="1"><mxGeometry x="-1120" y="920" width="190" height="90" as="geometry"/></mxCell><mxCell id="0dbk8oD-BahbHtxNB52f-126" value="" style="shape=tableRow;horizontal=0;startSize=0;swimlaneHead=0;swimlaneBody=0;fillColor=none;collapsible=0;dropTarget=0;points=[[0,0.5],[1,0.5]];portConstraint=eastwest;strokeColor=inherit;top=0;left=0;right=0;bottom=0;" parent="0dbk8oD-BahbHtxNB52f-125" vertex="1"><mxGeometry y="30" width="190" height="30" as="geometry"/></mxCell><mxCell id="0dbk8oD-BahbHtxNB52f-127" value="fK" style="shape=partialRectangle;overflow=hidden;connectable=0;fillColor=none;strokeColor=inherit;top=0;left=0;bottom=0;right=0;" parent="0dbk8oD-BahbHtxNB52f-126" vertex="1"><mxGeometry width="30" height="30" as="geometry"><mxRectangle width="30" height="30" as="alternateBounds"/></mxGeometry></mxCell><mxCell id="0dbk8oD-BahbHtxNB52f-128" value="id UUID NOT NULL" style="shape=partialRectangle;overflow=hidden;connectable=0;fillColor=#d80073;align=left;strokeColor=#A50040;top=0;left=0;bottom=0;right=0;spacingLeft=6;fontColor=#ffffff;" parent="0dbk8oD-BahbHtxNB52f-126" vertex="1"><mxGeometry x="30" width="160" height="30" as="geometry"><mxRectangle width="160" height="30" as="alternateBounds"/></mxGeometry></mxCell><mxCell id="0dbk8oD-BahbHtxNB52f-129" value="" style="shape=tableRow;horizontal=0;startSize=0;swimlaneHead=0;swimlaneBody=0;fillColor=none;collapsible=0;dropTarget=0;points=[[0,0.5],[1,0.5]];portConstraint=eastwest;strokeColor=inherit;top=0;left=0;right=0;bottom=0;" parent="0dbk8oD-BahbHtxNB52f-125" vertex="1"><mxGeometry y="60" width="190" height="30" as="geometry"/></mxCell><mxCell id="0dbk8oD-BahbHtxNB52f-130" value="fK" style="shape=partialRectangle;overflow=hidden;connectable=0;fillColor=none;strokeColor=inherit;top=0;left=0;bottom=0;right=0;" parent="0dbk8oD-BahbHtxNB52f-129" vertex="1"><mxGeometry width="30" height="30" as="geometry"><mxRectangle width="30" height="30" as="alternateBounds"/></mxGeometry></mxCell><mxCell id="0dbk8oD-BahbHtxNB52f-131" value="id UUID NOT NULL" style="shape=partialRectangle;overflow=hidden;connectable=0;fillColor=#d80073;align=left;strokeColor=#A50040;top=0;left=0;bottom=0;right=0;spacingLeft=6;fontColor=#ffffff;" parent="0dbk8oD-BahbHtxNB52f-129" vertex="1"><mxGeometry x="30" width="160" height="30" as="geometry"><mxRectangle width="160" height="30" as="alternateBounds"/></mxGeometry></mxCell><mxCell id="0dbk8oD-BahbHtxNB52f-132" value="beu2bw.utenti" style="shape=table;startSize=30;container=1;collapsible=1;childLayout=tableLayout;fixedRows=1;rowLines=0;fontStyle=1;align=center;resizeLast=1;" parent="1" vertex="1"><mxGeometry x="-1400" y="920" width="230" height="210" as="geometry"/></mxCell><mxCell id="0dbk8oD-BahbHtxNB52f-133" value="" style="shape=tableRow;horizontal=0;startSize=0;swimlaneHead=0;swimlaneBody=0;fillColor=none;collapsible=0;dropTarget=0;points=[[0,0.5],[1,0.5]];portConstraint=eastwest;strokeColor=inherit;top=0;left=0;right=0;bottom=0;" parent="0dbk8oD-BahbHtxNB52f-132" vertex="1"><mxGeometry y="30" width="230" height="30" as="geometry"/></mxCell><mxCell id="0dbk8oD-BahbHtxNB52f-134" value="PK" style="shape=partialRectangle;overflow=hidden;connectable=0;fillColor=none;strokeColor=inherit;top=0;left=0;bottom=0;right=0;" parent="0dbk8oD-BahbHtxNB52f-133" vertex="1"><mxGeometry width="30" height="30" as="geometry"><mxRectangle width="30" height="30" as="alternateBounds"/></mxGeometry></mxCell><mxCell id="0dbk8oD-BahbHtxNB52f-135" value="id UUID NOT NULL" style="shape=partialRectangle;overflow=hidden;connectable=0;fillColor=none;align=left;strokeColor=inherit;top=0;left=0;bottom=0;right=0;spacingLeft=6;" parent="0dbk8oD-BahbHtxNB52f-133" vertex="1"><mxGeometry x="30" width="200" height="30" as="geometry"><mxRectangle width="200" height="30" as="alternateBounds"/></mxGeometry></mxCell><mxCell id="0dbk8oD-BahbHtxNB52f-136" value="" style="shape=tableRow;horizontal=0;startSize=0;swimlaneHead=0;swimlaneBody=0;fillColor=none;collapsible=0;dropTarget=0;points=[[0,0.5],[1,0.5]];portConstraint=eastwest;strokeColor=inherit;top=0;left=0;right=0;bottom=0;" parent="0dbk8oD-BahbHtxNB52f-132" vertex="1"><mxGeometry y="60" width="230" height="30" as="geometry"/></mxCell><mxCell id="0dbk8oD-BahbHtxNB52f-137" value="" style="shape=partialRectangle;overflow=hidden;connectable=0;fillColor=none;strokeColor=inherit;top=0;left=0;bottom=0;right=0;" parent="0dbk8oD-BahbHtxNB52f-136" vertex="1"><mxGeometry width="30" height="30" as="geometry"><mxRectangle width="30" height="30" as="alternateBounds"/></mxGeometry></mxCell><mxCell id="0dbk8oD-BahbHtxNB52f-138" value="cognome character varying(50)" style="shape=partialRectangle;overflow=hidden;connectable=0;fillColor=none;align=left;strokeColor=inherit;top=0;left=0;bottom=0;right=0;spacingLeft=6;" parent="0dbk8oD-BahbHtxNB52f-136" vertex="1"><mxGeometry x="30" width="200" height="30" as="geometry"><mxRectangle width="200" height="30" as="alternateBounds"/></mxGeometry></mxCell><mxCell id="0dbk8oD-BahbHtxNB52f-139" value="" style="shape=tableRow;horizontal=0;startSize=0;swimlaneHead=0;swimlaneBody=0;fillColor=none;collapsible=0;dropTarget=0;points=[[0,0.5],[1,0.5]];portConstraint=eastwest;strokeColor=inherit;top=0;left=0;right=0;bottom=0;" parent="0dbk8oD-BahbHtxNB52f-132" vertex="1"><mxGeometry y="90" width="230" height="30" as="geometry"/></mxCell><mxCell id="0dbk8oD-BahbHtxNB52f-140" value="" style="shape=partialRectangle;overflow=hidden;connectable=0;fillColor=none;strokeColor=inherit;top=0;left=0;bottom=0;right=0;" parent="0dbk8oD-BahbHtxNB52f-139" vertex="1"><mxGeometry width="30" height="30" as="geometry"><mxRectangle width="30" height="30" as="alternateBounds"/></mxGeometry></mxCell><mxCell id="0dbk8oD-BahbHtxNB52f-141" value="email character varying(50)" style="shape=partialRectangle;overflow=hidden;connectable=0;fillColor=none;align=left;strokeColor=inherit;top=0;left=0;bottom=0;right=0;spacingLeft=6;" parent="0dbk8oD-BahbHtxNB52f-139" vertex="1"><mxGeometry x="30" width="200" height="30" as="geometry"><mxRectangle width="200" height="30" as="alternateBounds"/></mxGeometry></mxCell><mxCell id="0dbk8oD-BahbHtxNB52f-142" value="" style="shape=tableRow;horizontal=0;startSize=0;swimlaneHead=0;swimlaneBody=0;fillColor=none;collapsible=0;dropTarget=0;points=[[0,0.5],[1,0.5]];portConstraint=eastwest;strokeColor=inherit;top=0;left=0;right=0;bottom=0;" parent="0dbk8oD-BahbHtxNB52f-132" vertex="1"><mxGeometry y="120" width="230" height="30" as="geometry"/></mxCell><mxCell id="0dbk8oD-BahbHtxNB52f-143" value="" style="shape=partialRectangle;overflow=hidden;connectable=0;fillColor=none;strokeColor=inherit;top=0;left=0;bottom=0;right=0;" parent="0dbk8oD-BahbHtxNB52f-142" vertex="1"><mxGeometry width="30" height="30" as="geometry"><mxRectangle width="30" height="30" as="alternateBounds"/></mxGeometry></mxCell><mxCell id="0dbk8oD-BahbHtxNB52f-144" value="nome character varying(50)" style="shape=partialRectangle;overflow=hidden;connectable=0;fillColor=none;align=left;strokeColor=inherit;top=0;left=0;bottom=0;right=0;spacingLeft=6;" parent="0dbk8oD-BahbHtxNB52f-142" vertex="1"><mxGeometry x="30" width="200" height="30" as="geometry"><mxRectangle width="200" height="30" as="alternateBounds"/></mxGeometry></mxCell><mxCell id="0dbk8oD-BahbHtxNB52f-145" value="" style="shape=tableRow;horizontal=0;startSize=0;swimlaneHead=0;swimlaneBody=0;fillColor=none;collapsible=0;dropTarget=0;points=[[0,0.5],[1,0.5]];portConstraint=eastwest;strokeColor=inherit;top=0;left=0;right=0;bottom=0;" parent="0dbk8oD-BahbHtxNB52f-132" vertex="1"><mxGeometry y="150" width="230" height="30" as="geometry"/></mxCell><mxCell id="0dbk8oD-BahbHtxNB52f-146" value="" style="shape=partialRectangle;overflow=hidden;connectable=0;fillColor=none;strokeColor=inherit;top=0;left=0;bottom=0;right=0;" parent="0dbk8oD-BahbHtxNB52f-145" vertex="1"><mxGeometry width="30" height="30" as="geometry"><mxRectangle width="30" height="30" as="alternateBounds"/></mxGeometry></mxCell><mxCell id="0dbk8oD-BahbHtxNB52f-147" value="password character varying(120)" style="shape=partialRectangle;overflow=hidden;connectable=0;fillColor=none;align=left;strokeColor=inherit;top=0;left=0;bottom=0;right=0;spacingLeft=6;" parent="0dbk8oD-BahbHtxNB52f-145" vertex="1"><mxGeometry x="30" width="200" height="30" as="geometry"><mxRectangle width="200" height="30" as="alternateBounds"/></mxGeometry></mxCell><mxCell id="0dbk8oD-BahbHtxNB52f-148" value="" style="shape=tableRow;horizontal=0;startSize=0;swimlaneHead=0;swimlaneBody=0;fillColor=none;collapsible=0;dropTarget=0;points=[[0,0.5],[1,0.5]];portConstraint=eastwest;strokeColor=inherit;top=0;left=0;right=0;bottom=0;" parent="0dbk8oD-BahbHtxNB52f-132" vertex="1"><mxGeometry y="180" width="230" height="30" as="geometry"/></mxCell><mxCell id="0dbk8oD-BahbHtxNB52f-149" value="" style="shape=partialRectangle;overflow=hidden;connectable=0;fillColor=none;strokeColor=inherit;top=0;left=0;bottom=0;right=0;" parent="0dbk8oD-BahbHtxNB52f-148" vertex="1"><mxGeometry width="30" height="30" as="geometry"><mxRectangle width="30" height="30" as="alternateBounds"/></mxGeometry></mxCell><mxCell id="0dbk8oD-BahbHtxNB52f-150" value="username character varying(20)" style="shape=partialRectangle;overflow=hidden;connectable=0;fillColor=none;align=left;strokeColor=inherit;top=0;left=0;bottom=0;right=0;spacingLeft=6;" parent="0dbk8oD-BahbHtxNB52f-148" vertex="1"><mxGeometry x="30" width="200" height="30" as="geometry"><mxRectangle width="200" height="30" as="alternateBounds"/></mxGeometry></mxCell><mxCell id="0dbk8oD-BahbHtxNB52f-171" value="" style="edgeStyle=entityRelationEdgeStyle;fontSize=12;html=1;endArrow=ERoneToMany;rounded=0;" parent="1" source="0dbk8oD-BahbHtxNB52f-158" target="0dbk8oD-BahbHtxNB52f-129" edge="1"><mxGeometry width="100" height="100" relative="1" as="geometry"><mxPoint x="-880" y="790" as="sourcePoint"/><mxPoint x="-780" y="690" as="targetPoint"/></mxGeometry></mxCell><mxCell id="0dbk8oD-BahbHtxNB52f-157" value="beu2bw.ruoli" style="shape=table;startSize=30;container=1;collapsible=1;childLayout=tableLayout;fixedRows=1;rowLines=0;fontStyle=1;align=center;resizeLast=1;html=1;" parent="1" vertex="1"><mxGeometry x="-850" y="920" width="180" height="90" as="geometry"/></mxCell><mxCell id="0dbk8oD-BahbHtxNB52f-158" value="" style="shape=tableRow;horizontal=0;startSize=0;swimlaneHead=0;swimlaneBody=0;fillColor=none;collapsible=0;dropTarget=0;points=[[0,0.5],[1,0.5]];portConstraint=eastwest;top=0;left=0;right=0;bottom=1;" parent="0dbk8oD-BahbHtxNB52f-157" vertex="1"><mxGeometry y="30" width="180" height="30" as="geometry"/></mxCell><mxCell id="0dbk8oD-BahbHtxNB52f-159" value="PK" style="shape=partialRectangle;connectable=0;fillColor=none;top=0;left=0;bottom=0;right=0;fontStyle=1;overflow=hidden;whiteSpace=wrap;html=1;" parent="0dbk8oD-BahbHtxNB52f-158" vertex="1"><mxGeometry width="30" height="30" as="geometry"><mxRectangle width="30" height="30" as="alternateBounds"/></mxGeometry></mxCell><mxCell id="0dbk8oD-BahbHtxNB52f-160" value="id UUID NOT NULL" style="shape=partialRectangle;connectable=0;fillColor=none;top=0;left=0;bottom=0;right=0;align=left;spacingLeft=6;fontStyle=5;overflow=hidden;whiteSpace=wrap;html=1;" parent="0dbk8oD-BahbHtxNB52f-158" vertex="1"><mxGeometry x="30" width="150" height="30" as="geometry"><mxRectangle width="150" height="30" as="alternateBounds"/></mxGeometry></mxCell><mxCell id="0dbk8oD-BahbHtxNB52f-161" value="" style="shape=tableRow;horizontal=0;startSize=0;swimlaneHead=0;swimlaneBody=0;fillColor=none;collapsible=0;dropTarget=0;points=[[0,0.5],[1,0.5]];portConstraint=eastwest;top=0;left=0;right=0;bottom=0;" parent="0dbk8oD-BahbHtxNB52f-157" vertex="1"><mxGeometry y="60" width="180" height="30" as="geometry"/></mxCell><mxCell id="0dbk8oD-BahbHtxNB52f-162" value="" style="shape=partialRectangle;connectable=0;fillColor=none;top=0;left=0;bottom=0;right=0;editable=1;overflow=hidden;whiteSpace=wrap;html=1;" parent="0dbk8oD-BahbHtxNB52f-161" vertex="1"><mxGeometry width="30" height="30" as="geometry"><mxRectangle width="30" height="30" as="alternateBounds"/></mxGeometry></mxCell><mxCell id="0dbk8oD-BahbHtxNB52f-163" value="role_name" style="shape=partialRectangle;connectable=0;fillColor=none;top=0;left=0;bottom=0;right=0;align=left;spacingLeft=6;overflow=hidden;whiteSpace=wrap;html=1;" parent="0dbk8oD-BahbHtxNB52f-161" vertex="1"><mxGeometry x="30" width="150" height="30" as="geometry"><mxRectangle width="150" height="30" as="alternateBounds"/></mxGeometry></mxCell><mxCell id="0dbk8oD-BahbHtxNB52f-172" value="" style="edgeStyle=entityRelationEdgeStyle;fontSize=12;html=1;endArrow=ERoneToMany;rounded=0;" parent="1" source="0dbk8oD-BahbHtxNB52f-133" edge="1"><mxGeometry width="100" height="100" relative="1" as="geometry"><mxPoint x="-730" y="670" as="sourcePoint"/><mxPoint x="-1120" y="965" as="targetPoint"/></mxGeometry></mxCell><mxCell id="0dbk8oD-BahbHtxNB52f-173" value="" style="edgeStyle=entityRelationEdgeStyle;fontSize=12;html=1;endArrow=ERoneToMany;rounded=0;exitX=1;exitY=0.5;exitDx=0;exitDy=0;" parent="1" source="0dbk8oD-BahbHtxNB52f-44" target="0dbk8oD-BahbHtxNB52f-83" edge="1"><mxGeometry width="100" height="100" relative="1" as="geometry"><mxPoint x="-1020" y="530" as="sourcePoint"/><mxPoint x="-920" y="430" as="targetPoint"/></mxGeometry></mxCell><mxCell id="0dbk8oD-BahbHtxNB52f-174" value="" style="edgeStyle=entityRelationEdgeStyle;fontSize=12;html=1;endArrow=ERoneToMany;rounded=0;" parent="1" source="0dbk8oD-BahbHtxNB52f-47" target="0dbk8oD-BahbHtxNB52f-83" edge="1"><mxGeometry width="100" height="100" relative="1" as="geometry"><mxPoint x="-1020" y="530" as="sourcePoint"/><mxPoint x="-920" y="430" as="targetPoint"/></mxGeometry></mxCell><mxCell id="0dbk8oD-BahbHtxNB52f-175" value="" style="edgeStyle=entityRelationEdgeStyle;fontSize=12;html=1;endArrow=ERoneToMany;rounded=0;exitX=0;exitY=0.5;exitDx=0;exitDy=0;" parent="1" source="0dbk8oD-BahbHtxNB52f-119" target="0dbk8oD-BahbHtxNB52f-79" edge="1"><mxGeometry width="100" height="100" relative="1" as="geometry"><mxPoint x="-1020" y="530" as="sourcePoint"/><mxPoint x="-920" y="430" as="targetPoint"/></mxGeometry></mxCell><mxCell id="0dbk8oD-BahbHtxNB52f-180" value="" style="edgeStyle=entityRelationEdgeStyle;fontSize=12;html=1;endArrow=ERoneToMany;rounded=0;" parent="1" source="0dbk8oD-BahbHtxNB52f-2" target="0dbk8oD-BahbHtxNB52f-76" edge="1"><mxGeometry width="100" height="100" relative="1" as="geometry"><mxPoint x="-690" y="575" as="sourcePoint"/><mxPoint x="-790" y="675" as="targetPoint"/></mxGeometry></mxCell><mxCell id="0dbk8oD-BahbHtxNB52f-181" value="" style="edgeStyle=entityRelationEdgeStyle;fontSize=12;html=1;endArrow=ERoneToMany;rounded=0;" parent="1" source="0dbk8oD-BahbHtxNB52f-51" target="0dbk8oD-BahbHtxNB52f-98" edge="1"><mxGeometry width="100" height="100" relative="1" as="geometry"><mxPoint x="-1005" y="490" as="sourcePoint"/><mxPoint x="-905" y="390" as="targetPoint"/></mxGeometry></mxCell><mxCell id="0dbk8oD-BahbHtxNB52f-182" value="beu2bw.tipo_cliente" style="shape=table;startSize=30;container=1;collapsible=1;childLayout=tableLayout;fixedRows=1;rowLines=0;fontStyle=1;align=center;resizeLast=1;html=1;" parent="1" vertex="1"><mxGeometry x="-1120" y="80" width="180" height="90" as="geometry"/></mxCell><mxCell id="0dbk8oD-BahbHtxNB52f-183" value="" style="shape=tableRow;horizontal=0;startSize=0;swimlaneHead=0;swimlaneBody=0;fillColor=none;collapsible=0;dropTarget=0;points=[[0,0.5],[1,0.5]];portConstraint=eastwest;top=0;left=0;right=0;bottom=1;" parent="0dbk8oD-BahbHtxNB52f-182" vertex="1"><mxGeometry y="30" width="180" height="30" as="geometry"/></mxCell><mxCell id="0dbk8oD-BahbHtxNB52f-184" value="PK" style="shape=partialRectangle;connectable=0;fillColor=none;top=0;left=0;bottom=0;right=0;fontStyle=1;overflow=hidden;whiteSpace=wrap;html=1;" parent="0dbk8oD-BahbHtxNB52f-183" vertex="1"><mxGeometry width="30" height="30" as="geometry"><mxRectangle width="30" height="30" as="alternateBounds"/></mxGeometry></mxCell><mxCell id="0dbk8oD-BahbHtxNB52f-185" value="id UUID NOT NULL" style="shape=partialRectangle;connectable=0;fillColor=none;top=0;left=0;bottom=0;right=0;align=left;spacingLeft=6;fontStyle=5;overflow=hidden;whiteSpace=wrap;html=1;" parent="0dbk8oD-BahbHtxNB52f-183" vertex="1"><mxGeometry x="30" width="150" height="30" as="geometry"><mxRectangle width="150" height="30" as="alternateBounds"/></mxGeometry></mxCell><mxCell id="0dbk8oD-BahbHtxNB52f-186" value="" style="shape=tableRow;horizontal=0;startSize=0;swimlaneHead=0;swimlaneBody=0;fillColor=none;collapsible=0;dropTarget=0;points=[[0,0.5],[1,0.5]];portConstraint=eastwest;top=0;left=0;right=0;bottom=0;" parent="0dbk8oD-BahbHtxNB52f-182" vertex="1"><mxGeometry y="60" width="180" height="30" as="geometry"/></mxCell><mxCell id="0dbk8oD-BahbHtxNB52f-187" value="" style="shape=partialRectangle;connectable=0;fillColor=none;top=0;left=0;bottom=0;right=0;editable=1;overflow=hidden;whiteSpace=wrap;html=1;" parent="0dbk8oD-BahbHtxNB52f-186" vertex="1"><mxGeometry width="30" height="30" as="geometry"><mxRectangle width="30" height="30" as="alternateBounds"/></mxGeometry></mxCell><mxCell id="0dbk8oD-BahbHtxNB52f-188" value="nome" style="shape=partialRectangle;connectable=0;fillColor=none;top=0;left=0;bottom=0;right=0;align=left;spacingLeft=6;overflow=hidden;whiteSpace=wrap;html=1;" parent="0dbk8oD-BahbHtxNB52f-186" vertex="1"><mxGeometry x="30" width="150" height="30" as="geometry"><mxRectangle width="150" height="30" as="alternateBounds"/></mxGeometry></mxCell><mxCell id="0dbk8oD-BahbHtxNB52f-195" value="" style="edgeStyle=entityRelationEdgeStyle;fontSize=12;html=1;endArrow=ERoneToMany;rounded=0;" parent="1" source="0dbk8oD-BahbHtxNB52f-183" target="0dbk8oD-BahbHtxNB52f-41" edge="1"><mxGeometry width="100" height="100" relative="1" as="geometry"><mxPoint x="-950" y="800" as="sourcePoint"/><mxPoint x="-850" y="700" as="targetPoint"/></mxGeometry></mxCell><mxCell id="0dbk8oD-BahbHtxNB52f-196" value="&lt;h1&gt;Note:&lt;/h1&gt;&lt;p&gt;In JPA la dichiarazione di una colonna character varyng si fa con:&amp;nbsp;&amp;nbsp;&lt;/p&gt;&lt;p&gt;@Column(length = 255)&lt;/p&gt;&lt;p&gt;private String nomeContatto;&lt;/p&gt;&lt;p&gt;&lt;br&gt;&lt;/p&gt;&lt;p&gt;La dichiarazione di una colonna come numeric:&lt;/p&gt;&lt;p&gt;@Column(columnDefinition = &quot;numeric(19,2)&quot;)&lt;/p&gt;&lt;p&gt;private Double importo;&lt;/p&gt;&lt;p&gt;@Column(columnDefinition = &quot;timestamp without time zone&lt;span style=&quot;background-color: initial;&quot;&gt;&quot;)&lt;/span&gt;&lt;/p&gt;&lt;p&gt;&lt;span style=&quot;background-color: initial;&quot;&gt;private LocalDateTime data_inserimento&lt;/span&gt;&lt;/p&gt;" style="text;html=1;strokeColor=none;fillColor=none;spacing=5;spacingTop=-20;whiteSpace=wrap;overflow=hidden;rounded=0;" parent="1" vertex="1"><mxGeometry x="-565" y="800" width="280" height="320" as="geometry"/></mxCell></root></mxGraphModel></diagram></mxfile>